<svg xmlns="http://www.w3.org/2000/svg" width="240" height="500" viewBox="0 0 240 500"><path fill="#44B449" d="M48 280.8v7.6l8.5 7.6L73 281.2V273l-16.5 14.9zM22.4 324v3.5l4.1 3.6 6.9-6.2v-3.8l-6.9 6.2z"/><path fill="#C0C0C0" d="M8 280.8v7.6l8.6 7.6L33 281.2V273l-16.4 14.9z"/><path fill="#FE7A16" d="M45.1 191h29l-14.4-15z"/><path fill="#818185" d="M5.2 191h29l-14.5-15z"/><path fill="#FE7A16" d="M59.6 243L74 228H45zM6.5 322.3l-6.5 7h13z"/><path fill="#818185" d="M7.2 386.5l-7-6.5v13zM54.1 473.6l-7-6.4v13zM6.5 473.7l7 6.5v-13zM26.8 390l6.4-7h-13z"/><path fill="#B8B8B8" d="M6.5 341.3l-6.5 7h13z"/><path fill="#818185" d="M19.7 243l14.5-15h-29z"/><path fill="#FFD83D" d="M59.1 137l-6.5 4.8L55 134l-6.4-4.6h8l2.5-7.8 2.5 7.8h8l-6.4 4.6 2.4 7.8z"/><path fill="#EAC328" d="M59.1 123.3l1.9 5.9.2.7H68l-5 3.7-.6.4.2.7 1.9 5.9-5-3.7-.6-.4-.6.4-5 3.7 1.9-5.9.2-.7-.6-.4-5-3.7h6.8l.2-.7 2.3-5.9m0-3.3l-2.9 8.8H47l7.4 5.5-2.9 8.8 7.4-5.5 7.4 5.5-2.9-8.8 7.4-5.5h-9.2l-2.5-8.8z"/><path fill="#C0C0C0" d="M19 120l2.8 8.8H31l-7.4 5.4 2.9 8.8-7.5-5.5-7.5 5.5 2.9-8.8-7.4-5.4h9.2z"/><circle fill="#c96" cx="65" cy="405" r="3"/><circle fill="#C5C5C5" cx="85" cy="405" r="3"/><circle fill="#fc0" cx="105" cy="405" r="3"/><path fill="#9E9E9E" d="M47.2 367h2v2h-2zM50.2 370h2v2h-2zM56.2 370h2v2h-2zM62.2 370h2v2h-2zM68.2 370h2v2h-2zM53.3 367h2v2h-2zM59.3 367h2v2h-2zM65.3 367h2v2h-2zM71.4 367h2v2h-2z"/><path fill="#C5C5C5" d="M.2 400v31h3.4c.3-5.5 3.7-10.1 8.3-11.8V418c-1.8-1.2-3-3.3-3-5.6 0-3.7 3-6.7 6.8-6.7s6.8 3 6.8 6.7c0 2.3-1.2 4.4-3 5.6v1.2c4.6 1.7 8 6.3 8.3 11.8h3.4v-31H.2z"/><path fill="#fff" d="M3.7 431H28c-.3-5.5-3.7-10.1-8.3-11.8V418c1.8-1.2 3-3.3 3-5.6 0-3.7-3-6.7-6.8-6.7s-6.8 3-6.8 6.7c0 2.3 1.2 4.4 3 5.6v1.2c-4.6 1.7-8.1 6.3-8.4 11.8z"/><path fill="#B8B8B8" d="M60.3 340h1.9v14h-1.9z"/><path fill="#ccc" d="M63.2 341h10.1v8H63.2z"/><path fill="#D35F5F" d="M60.3 320.1h1.9v14h-1.9z"/><path fill="#F89393" d="M63.2 321.1h10.1v8H63.2z"/><path fill="#FE6502" d="M80.3 320.1h14v14h-14z"/><path fill="#fff" d="M83.5 329.5c-.8 0-1.4.6-1.4 1.4s.6 1.4 1.4 1.4 1.4-.6 1.4-1.4c0-.7-.6-1.4-1.4-1.4zm-1.4-4v2c1.3 0 2.5.5 3.4 1.4s1.4 2.1 1.4 3.4h2c.1-3.8-3-6.8-6.8-6.8zm0-3.6v2c4.6 0 8.4 3.8 8.4 8.4h2c0-5.7-4.7-10.4-10.4-10.4z"/><g fill="#7A7A7A"><path d="M22.6 347.1l-.7 3.2 3.2-.7zM25.81 348.92l-2.475-2.475 3.606-3.606 2.476 2.474zM29.1 341.3c-.4 0-.8.1-1.1.4l-.7.7 2.5 2.5.7-.7c.2-.3.4-.7.4-1.1 0-1-.8-1.8-1.8-1.8z"/></g><circle fill="#C03433" cx="107" cy="451.8" r="6.5"/><path fill="#fff" d="M110.2 453.7l-1.9-1.9 1.9-1.9V449.6l-.9-.9c-.1-.1-.1-.1-.2 0h-.1l-1.9 1.9-1.9-1.9H104.9l-.9.9c-.1.1-.1.1 0 .2v.1l1.9 1.9-1.9 1.9V454l.9.9c.1.1.1.1.2 0h.1l1.9-1.9 1.9 1.9H109.3l.9-.9v-.3c0 .1 0 .1 0 0z"/><circle fill="#C03433" cx="47.2" cy="346.9" r="6.5"/><path fill="#fff" d="M50.4 348.8l-1.9-1.9 1.9-1.9V344.7l-.9-.9c-.1-.1-.1-.1-.2 0h-.1l-1.9 1.9-1.9-1.9H45.1l-.9.9c-.1.1-.1.1 0 .2v.1l1.9 1.9-1.9 1.9V349.1l.9.9c.1.1.1.1.2 0h.1l1.9-1.9 1.9 1.9H49.5l.9-.9v-.3c0 .1 0 0 0 0z"/><circle fill="#ccc" cx="47.2" cy="326.1" r="6.5"/><path fill="#fff" d="M50.4 328.1l-1.9-1.9 1.9-1.9V324l-.9-.9c-.1-.1-.1-.1-.2 0h-.1l-2 1.8-1.9-1.9H45l-.9.9c-.1.1-.1.1 0 .2v.1l1.9 1.9-1.9 1.9V328.3l.9.9c.1.1.1.1.2 0h.1l1.9-1.9 1.9 1.9H49.4l.9-.9c.1 0 .1-.1.1-.2z"/><path d="M41.8 45c-2.3 0-4.1-.5-5.6-2l1.3-1.3c1.1 1.1 2.6 1.6 4.3 1.6 2.3 0 3.7-.8 3.7-2.4 0-1.2-.7-1.9-2.3-2l-2.3-.2c-2.7-.2-4.1-1.4-4.1-3.7 0-2.5 2.1-4 5-4 2 0 3.7.5 4.9 1.5l-1.3 1.3c-1-.8-2.2-1.1-3.7-1.1-2 0-3.1.9-3.1 2.3 0 1.2.7 1.9 2.4 2l2.2.2c2.4.2 4 1.1 4 3.7.2 2.6-2.1 4.1-5.4 4.1zM53.5 44.8c-2.3 0-3.5-1.6-3.5-3.7v-8.4h-1.7v-1.5H50v-4.3h2v4.3h2.9v1.5H52v8.4c0 1.3.6 2 1.9 2H55v1.7h-1.5zM65.3 44.8v-1.3c-1.1 1.1-2.1 1.5-4 1.5s-3-.4-3.9-1.3c-.7-.7-1-1.7-1-2.8 0-2.4 1.7-4 4.7-4h4.1v-1.3c0-2-1-3-3.5-3-1.8 0-2.6.4-3.5 1.6L57 33c1.2-1.6 2.6-2 4.8-2 3.7 0 5.5 1.6 5.5 4.6v9.3l-2-.1zm0-6.3h-3.8c-2.1 0-3.1.8-3.1 2.4 0 1.6 1 2.3 3.1 2.3 1.2 0 2.2-.1 3.1-.9.5-.4.7-1.2.7-2.4v-1.4zM75.1 45c-3.5 0-6.1-2.3-6.1-7s2.6-7 6.1-7c1.9 0 3.1.5 4.5 2l-1.4 1.3c-1-1.1-1.8-1.5-3.1-1.5s-2.5.5-3.2 1.6c-.6.9-.9 2-.9 3.7s.3 2.8.9 3.7c.7 1 1.8 1.6 3.2 1.6 1.3 0 2.1-.4 3.1-1.6l1.4 1.3C78.2 44.5 77 45 75.1 45zM90.6 44.8l-4.3-7-2.7 3.1v4h-2V25h2v13.3l6.2-7.1h2.5l-4.7 5.2 5.5 8.5-2.5-.1zM103.8 43.3c-.8.9-2.2 1.7-4.3 1.7-2 0-3.4-.8-4.3-1.7-1.2-1.3-1.6-2.9-1.6-5.4s.3-4 1.6-5.3c.8-.9 2.2-1.7 4.3-1.7 2 0 3.4.8 4.3 1.7 1.2 1.3 1.6 2.9 1.6 5.3 0 2.6-.4 4.1-1.6 5.4zm-2.7-8.7c-.4-.4-.9-.6-1.6-.6s-1.2.2-1.6.6c-.7.7-.8 1.9-.8 3.3s.1 2.6.8 3.4c.4.4.9.6 1.6.6s1.2-.2 1.6-.6c.7-.7.8-1.9.8-3.4 0-1.4 0-2.6-.8-3.3zM113.1 44.8h-2.7l-5.1-13.7h3.6l2.8 8.5 2.8-8.5h3.6l-5 13.7zM121.4 39c0 1.8 1.1 3.1 3 3.1 1.5 0 2.2-.4 3.1-1.3l2.1 2c-1.4 1.4-2.7 2.2-5.2 2.2-3.2 0-6.4-1.5-6.4-7.1 0-4.5 2.4-7 6-7 3.8 0 6 2.8 6 6.6V39h-8.6zm4.9-3.8c-.4-.8-1.1-1.4-2.3-1.4-1.2 0-1.9.6-2.3 1.4-.2.5-.3.9-.3 1.5h5.2c0-.6-.1-1-.3-1.5zM139.2 34.8c-.5-.5-1-.8-1.8-.8-1.1 0-2.2.8-2.2 2.5v8.3h-3.4V31.1h3.4v1.3c.7-.8 2-1.5 3.5-1.5 1.3 0 2.3.3 3.2 1.3l-2.7 2.6zM147.5 33.7v11.1h-3.4V33.7h-1.4v-2.6h1.4v-1.7c0-2 1.2-3.9 4-3.9h2v2.9h-1.3c-.8 0-1.2.4-1.2 1.2v1.5h2.5v2.6h-2.6zm8.1 11.1c-2.8 0-4-2-4-3.9V25.4h3.4v15.2c0 .8.3 1.2 1.2 1.2h1.3v2.9l-1.9.1zM168.2 43.3c-.8.9-2.2 1.7-4.3 1.7-2 0-3.4-.8-4.3-1.7-1.2-1.3-1.6-2.9-1.6-5.4s.3-4 1.6-5.3c.8-.9 2.2-1.7 4.3-1.7 2 0 3.4.8 4.3 1.7 1.2 1.3 1.6 2.9 1.6 5.3-.1 2.6-.4 4.1-1.6 5.4zm-2.7-8.7c-.4-.4-.9-.6-1.6-.6s-1.2.2-1.6.6c-.7.7-.8 1.9-.8 3.3s.1 2.6.8 3.4c.4.4.9.6 1.6.6s1.2-.2 1.6-.6c.7-.7.8-1.9.8-3.4 0-1.4-.1-2.6-.8-3.3zM185.1 44.8h-2.8l-2.9-8.6-2.9 8.6h-2.8l-4.2-13.7h3.6l2.2 8.5 2.8-8.5h2.5l2.8 8.5 2.2-8.5h3.6l-4.1 13.7z"/><path fill="#818185" d="M6 38.9h17v3H6zM26 30.9v14H3v-14H0v17h29v-17z"/><path fill="#A68A6E" d="M6.37 32.736l16.728 1.544-.276 2.988-16.73-1.545z"/><path fill="#BF9452" d="M23.2 32.9l-16.3-4 .7-3L23.9 30z"/><path fill="#D28B29" d="M24.3 28.2L9.6 20.7l1.4-2.5 14.6 7.5z"/><path fill="#F68A1F" d="M26.7 24.7l-13-10.8 2-2.2 13 10.7z"/><path fill="#F47920" d="M29.6 21L20.1 7.6 22.5 6l9.6 13.4z"/></svg>